<svg width="286" height="287" viewBox="0 0 286 287" fill="none" xmlns="http://www.w3.org/2000/svg">
<g filter="url(#filter0_i)">
<path d="M270.586 59.1533C268.944 55.7304 265.396 53.8511 263.622 50.4282C261.585 46.5354 260.402 42.1057 258.037 38.3472C256.263 35.5283 254.095 32.9107 251.598 30.763C246.013 25.9306 239.509 22.5077 233.398 18.3464C229.982 16.0645 226.565 13.514 223.806 10.4267C221.572 7.87624 219.535 4.38618 216.513 2.70827C209.877 -1.11738 201.007 3.2452 194.568 6.60103C192.071 6.0641 189.509 7.47355 188.917 9.95686C187.932 10.024 187.012 10.1582 186.026 10.2924C185.369 10.3596 184.909 10.8965 185.041 11.5677C186.026 15.5947 184.055 19.6216 184.844 23.6486C185.369 26.4675 186.88 28.7495 188.917 30.6959C190.363 32.0382 192.531 34.6558 194.765 34.0517C196.21 33.649 196.67 32.4409 196.802 31.0986C202.715 29.8234 208.431 26.4675 212.111 21.5009C215.001 24.2527 217.564 27.4072 219.338 31.0315C221.637 35.7296 222.163 40.6963 223.543 45.73C224.2 48.1462 225.251 50.2939 226.5 52.2403C229.193 54.7907 231.69 56.2673 235.37 56.67C237.735 56.9385 240.166 57.2069 242.465 57.6768C242.531 57.6768 242.531 57.811 242.465 57.811C239.377 58.0795 236.289 58.1466 233.267 58.0794C232.084 58.0794 231.033 57.6768 230.047 57.1398C224.266 57.0727 218.615 55.0592 212.833 57.0056C212.11 57.2741 211.388 57.6096 210.665 57.9452C210.139 58.1466 209.614 58.415 209.022 58.6164C208.103 59.0191 207.446 59.6902 206.854 60.4285C206.066 61.3682 205.409 62.3749 204.489 63.1132C201.269 65.7979 198.444 68.9523 195.816 72.3082C195.75 72.4424 195.553 72.3082 195.553 72.1739C196.407 69.0866 197.919 66.5361 199.89 64.2542C185.566 61.2339 170.52 64.4555 158.628 73.2478C157.183 72.4424 155.671 71.637 154.16 70.8987C154.226 64.2542 154.489 57.6767 154.752 51.0993C157.051 50.8309 158.957 48.616 159.482 46.0656C160.139 42.844 161.453 36.2666 157.905 34.2531H157.84C158.037 29.0851 158.168 23.9171 157.774 18.8162C157.445 14.2523 154.62 13.7825 151.795 10.8965C146.736 5.86275 143.451 -2.05701 135.5 0.493423C127.616 -2.05701 124.265 5.86275 119.206 10.8965C116.315 13.7825 113.556 14.2523 113.227 18.8162C112.833 23.9171 113.03 29.1522 113.161 34.2531H113.096C109.613 36.2666 110.862 42.7769 111.519 46.0656C112.044 48.616 113.884 50.8309 116.249 51.0993C116.578 57.6767 116.841 64.3213 116.841 70.8987C115.33 71.637 113.818 72.4424 112.373 73.2478C100.481 64.5226 85.4346 61.2339 71.1113 64.2542C73.0823 66.5361 74.5935 69.1537 75.4477 72.1739C75.5134 72.3082 75.3162 72.4424 75.1848 72.3082C72.5567 68.9523 69.7971 65.865 66.512 63.1132C65.5921 62.3749 64.9351 61.3682 64.1467 60.4285C63.5553 59.6902 62.8326 59.0191 61.9785 58.6164C61.4528 58.415 60.9272 58.1466 60.3359 57.9452C59.6132 57.6096 58.8904 57.3412 58.1676 57.0056C52.3858 55.0592 46.7353 57.0056 40.9534 57.1398C39.9679 57.6768 38.9166 58.0794 37.7339 58.0794C34.6459 58.1466 31.5578 58.0123 28.5355 57.811C28.4698 57.811 28.4698 57.7439 28.5355 57.6768C30.9008 57.2741 33.2661 56.9385 35.6314 56.67C39.3108 56.3344 41.8075 54.7907 44.5014 52.2403C45.7497 50.2939 46.7353 48.2133 47.458 45.73C48.8378 40.6963 49.3634 35.7967 51.663 31.0315C53.437 27.4072 55.9995 24.2527 58.8904 21.5009C62.5698 26.4675 68.286 29.8234 74.1993 31.0986C74.3307 32.3738 74.8563 33.649 76.2361 34.0517C78.47 34.6558 80.7039 32.0382 82.0837 30.6959C84.1862 28.7495 85.6316 26.4675 86.1572 23.6486C86.9457 19.6216 84.9746 15.6618 85.9602 11.5677C86.1573 10.8965 85.6317 10.3596 84.9746 10.2924C83.9891 10.1582 83.0692 10.0911 82.0837 9.95686C81.4266 7.47355 78.9299 6.0641 76.4332 6.60103C69.9943 3.17808 61.1243 -1.11738 54.4883 2.70827C51.4659 4.4533 49.4291 7.87624 47.1952 10.4267C44.4357 13.5812 41.0191 16.0645 37.6025 18.3464C31.4921 22.4405 24.9875 25.9306 19.4027 30.763C16.906 32.9778 14.7378 35.5283 12.9638 38.3472C10.5985 42.1057 9.48151 46.5354 7.37901 50.4282C5.60502 53.8511 2.05706 55.7304 0.414473 59.1533C-1.0967 62.3078 1.85994 65.0596 3.89674 66.9388C11.7154 74.2545 19.5341 81.6374 27.3528 89.0202C33.3975 94.7251 39.6393 101.437 48.1151 102.779C51.0717 103.249 54.0284 102.645 56.9193 102.041C59.416 102.846 61.9785 103.584 64.5409 104.189C68.0232 122.713 77.5502 140.029 90.2309 153.855C90.1652 152.177 90.1651 150.566 90.428 148.821C91.6763 141.103 93.5817 133.049 99.5607 127.612C99.6921 127.478 99.9549 127.679 99.8892 127.881C97.1954 132.176 95.093 136.337 94.1074 141.371C93.2533 146.002 92.0705 151.103 92.7276 155.868C92.859 156.741 92.9247 157.68 92.9904 158.553C94.6987 164.862 95.6185 171.439 95.6185 178.218C95.5528 184.796 94.0417 190.97 92.859 197.346C91.8735 202.716 95.4214 205.132 99.6264 207.347C110.27 212.985 122.885 213.32 134.646 212.85C134.909 212.85 135.106 212.85 135.369 212.783C135.369 212.783 135.369 212.783 135.435 212.783C135.435 212.783 135.435 212.783 135.5 212.783C135.763 212.783 135.96 212.783 136.223 212.85C147.918 213.32 160.599 212.985 171.243 207.347C175.448 205.132 179.062 202.783 178.01 197.346C176.828 190.903 175.251 184.796 175.251 178.218C175.185 171.439 176.171 164.862 177.879 158.553C177.945 157.68 178.01 156.741 178.142 155.868C178.799 151.103 177.616 146.002 176.762 141.371C175.777 136.337 173.674 132.176 170.98 127.881C170.849 127.679 171.112 127.478 171.309 127.612C177.288 133.049 179.193 141.103 180.441 148.821C180.704 150.566 180.704 152.244 180.639 153.855C193.319 140.029 202.846 122.713 206.329 104.189C208.891 103.584 211.453 102.913 213.95 102.041C216.841 102.645 219.798 103.249 222.754 102.779C231.296 101.437 237.472 94.7251 243.517 89.0202C251.335 81.6374 259.154 74.2545 266.973 66.9388C269.141 65.0596 272.098 62.3749 270.586 59.1533ZM63.2268 93.3157C63.0297 93.8526 62.8326 94.3895 62.5698 94.8593C62.307 95.4634 61.9785 96.0674 61.5842 96.6715C61.5185 96.7386 61.5185 96.8057 61.4528 96.8057C60.5987 98.0809 59.5475 99.2219 58.3648 100.229C58.3648 100.229 58.2991 100.229 58.2991 100.162C59.6788 97.9467 61.1243 95.6647 62.0442 93.1814C64.081 85.9999 61.0586 77.0734 54.3569 73.7176C47.3266 70.1604 40.6249 70.2947 33.1347 71.8383C33.0033 71.8383 32.9376 71.7041 33.069 71.637C40.4278 68.2141 51.3345 69.1537 58.102 73.6505C64.3438 77.8788 65.7235 86.4698 63.2268 93.3157ZM118.615 60.4956C121.177 63.7172 125.579 66.2677 129.85 67.0731C127.682 65.2609 126.565 63.1132 125.776 60.2272C125.711 60.0258 125.973 59.8916 126.105 60.0929C127.485 62.6434 128.996 65.3952 131.952 66.4019C133.201 66.8046 134.384 66.9388 135.5 66.9388C136.683 66.9388 137.8 66.8046 139.048 66.4019C141.939 65.3952 143.451 62.7105 144.896 60.0929C145.027 59.8916 145.29 60.0258 145.225 60.2272C144.502 63.1132 143.319 65.2609 141.151 67.0731C145.422 66.2677 149.824 63.7172 152.386 60.4956C152.518 60.3614 152.715 60.5628 152.649 60.697C150.612 65.6636 144.568 68.0127 139.443 68.2812C138.26 68.9523 136.88 69.355 135.5 69.4893C134.121 69.4221 132.741 68.9523 131.558 68.2812C126.433 68.0127 120.389 65.6636 118.352 60.697C118.286 60.5628 118.483 60.3614 118.615 60.4956ZM115.33 74.0532C118.878 72.9793 122.491 74.1203 125.579 75.9996C129.127 78.1473 131.821 80.5635 135.566 80.8991C139.246 80.5635 142.005 78.1473 145.553 75.9996C148.641 74.1203 152.255 72.9793 155.803 74.0532C155.868 74.0532 155.868 74.1874 155.803 74.2545C150.152 74.6572 146.276 77.8117 141.808 81.0333C139.903 82.4428 137.8 83.2482 135.566 83.4495C133.332 83.3153 131.23 82.4428 129.324 81.0333C124.922 77.8117 120.98 74.6572 115.33 74.2545C115.264 74.1874 115.198 74.0532 115.33 74.0532ZM91.3478 134.928C87.8655 134.525 87.6028 129.491 88.2598 126.74C89.5739 121.706 92.9247 116.404 96.0127 112.31H96.0785C95.3558 116.202 92.3333 119.223 91.085 122.914C89.9023 126.337 88.7854 131.237 91.6763 134.055C91.9391 134.391 91.8077 134.928 91.3478 134.928ZM98.7723 127.612C98.5095 127.814 98.181 127.411 98.3781 127.21C99.2323 125.867 99.8893 123.652 97.7868 123.115C96.4727 122.713 95.0929 122.914 93.7131 122.646C93.6474 122.646 93.6474 122.511 93.7131 122.511C95.4214 121.84 98.5752 121.505 99.7579 123.317C100.743 124.793 100.152 126.673 98.7723 127.612ZM114.475 142.445C114.541 142.177 114.935 142.244 114.935 142.512C114.87 145.801 114.213 149.157 114.278 152.445C114.344 156.137 119.929 158.687 122.951 159.425C123.214 159.493 123.148 159.895 122.885 159.895C119.929 160.03 114.804 158.956 113.424 155.734C111.782 151.908 113.621 146.338 114.475 142.445ZM128.536 198.219C125.316 200.098 121.177 197.078 119.075 194.662C116.381 191.574 115.527 186.943 115.527 182.983C115.527 182.782 115.789 182.782 115.855 182.916C116.709 186.608 117.629 190.635 120.323 193.454C121.703 194.863 123.28 196.205 125.185 196.809C126.368 197.145 127.485 197.279 128.602 197.816C128.733 197.816 128.667 198.085 128.536 198.219ZM129.193 177.01C124.922 175.802 119.009 181.574 115.395 176.742C114.213 175.131 113.621 173.52 113.753 171.506C114.081 167.949 114.607 164.593 114.081 161.036C114.015 160.701 114.475 160.566 114.607 160.902C115.198 163.385 115.724 165.869 115.592 168.419C115.527 171.171 115.001 175.735 118.615 176.54C122.294 177.346 125.776 174.527 129.39 176.473C129.653 176.674 129.456 177.144 129.193 177.01ZM152.058 194.595C149.955 197.011 145.816 200.031 142.596 198.152C142.399 198.085 142.399 197.749 142.596 197.682C143.713 197.212 144.896 197.011 146.013 196.675C147.918 196.138 149.495 194.796 150.875 193.319C153.569 190.5 154.489 186.473 155.343 182.782C155.409 182.581 155.671 182.648 155.671 182.849C155.606 186.943 154.752 191.507 152.058 194.595ZM155.737 176.809C152.123 181.574 146.21 175.869 141.939 177.077C141.611 177.144 141.414 176.742 141.742 176.54C145.29 174.594 148.838 177.413 152.518 176.607C156.131 175.802 155.606 171.238 155.54 168.486C155.474 165.936 155.934 163.452 156.526 160.969C156.591 160.634 157.051 160.768 157.051 161.103C156.525 164.661 157.051 168.016 157.38 171.574C157.511 173.587 156.92 175.198 155.737 176.809ZM157.708 155.801C156.394 159.023 151.204 160.097 148.247 159.962C147.984 159.962 147.918 159.56 148.181 159.493C151.204 158.754 156.788 156.204 156.854 152.512C156.92 149.224 156.263 145.868 156.197 142.579C156.197 142.311 156.591 142.244 156.657 142.512C157.511 146.338 159.351 151.908 157.708 155.801ZM163.753 135.465C159.679 136.472 156 134.995 152.452 133.049C150.021 131.706 147.656 130.431 144.962 129.76C142.071 129.022 138.654 129.424 135.566 129.76C132.478 129.424 129.062 129.022 126.171 129.76C123.477 130.498 121.111 131.773 118.68 133.049C115.132 134.995 111.453 136.472 107.379 135.465C107.248 135.398 107.314 135.196 107.445 135.264C113.884 136.203 118.023 130.968 123.477 128.552C127.419 126.807 131.493 127.277 135.632 127.411C139.771 127.277 143.845 126.807 147.787 128.552C153.175 130.968 157.38 136.203 163.819 135.264C163.819 135.196 163.95 135.398 163.753 135.465ZM177.485 122.646C176.105 122.914 174.725 122.713 173.411 123.115C171.309 123.719 171.966 125.867 172.82 127.21C172.951 127.478 172.689 127.814 172.426 127.612C171.046 126.605 170.455 124.726 171.44 123.25C172.623 121.437 175.842 121.773 177.485 122.444C177.485 122.511 177.551 122.646 177.485 122.646ZM179.719 134.928C179.325 134.995 179.127 134.391 179.39 134.123C182.281 131.237 181.164 126.337 179.982 122.981C178.668 119.29 175.645 116.27 174.988 112.377C174.988 112.377 174.988 112.31 175.054 112.377C178.142 116.471 181.493 121.706 182.807 126.807C183.53 129.424 183.201 134.525 179.719 134.928ZM201.204 90.0941C194.371 94.3895 186.289 96.4701 178.339 96.0003C177.616 97.1413 176.894 98.2152 176.105 99.289C171.44 106.001 165.724 111.37 157.84 113.652C151.006 115.598 142.531 115.33 137.537 109.558C136.552 108.35 135.895 107.007 135.566 105.531C135.172 107.007 134.581 108.417 133.595 109.558C128.667 115.33 120.126 115.598 113.293 113.652C105.408 111.437 99.6921 106.001 95.0272 99.289C94.2387 98.2152 93.5161 97.0742 92.7933 96.0003C84.7775 96.4701 76.696 94.3895 69.9286 90.0941C69.7971 89.9598 69.9286 89.7585 70.06 89.8256C77.0245 92.9801 84.1205 94.3224 91.6763 94.1882C90.2966 91.9733 88.9168 89.7585 87.4056 87.6107C85.1717 84.322 83.135 81.3018 81.6238 77.5433C81.5581 77.4761 81.7552 77.409 81.7552 77.4761C83.0035 79.4225 83.9233 81.5031 85.4345 83.3153C86.6172 84.7919 87.8656 86.2684 88.9825 87.8121C90.8879 90.3625 92.5962 92.9801 94.3702 95.6647C98.4438 101.772 103.372 108.283 110.467 110.9C116.906 113.316 131.033 115.33 133.529 106.068C135.106 100.229 134.975 93.9868 135.5 87.9463C136.092 93.9868 135.895 100.162 137.472 106.068C139.968 115.33 154.095 113.316 160.533 110.9C167.629 108.283 172.491 101.772 176.631 95.6647C178.405 93.0472 180.113 90.3625 182.018 87.8121C183.201 86.2684 184.384 84.7919 185.566 83.3153C187.078 81.5031 187.932 79.4225 189.246 77.4761C189.311 77.409 189.443 77.4761 189.377 77.5433C187.932 81.3018 185.829 84.322 183.595 87.6107C182.15 89.7585 180.77 91.9733 179.325 94.1882C186.88 94.3224 193.976 92.9801 200.941 89.8256C201.204 89.7585 201.401 90.0269 201.204 90.0941ZM237.932 71.8383C230.442 70.3618 223.674 70.2276 216.71 73.7176C210.008 77.0734 206.986 85.9999 209.022 93.1814C209.942 95.5976 211.388 97.8796 212.768 100.162C212.768 100.229 212.768 100.229 212.702 100.229C211.519 99.1548 210.468 98.0138 209.614 96.8057C209.548 96.8057 209.482 96.7386 209.482 96.6715C209.154 96.0674 208.825 95.5305 208.497 94.8593C208.234 94.3224 208.037 93.8526 207.84 93.3157C205.343 86.4698 206.723 77.8788 213.03 73.7176C219.798 69.2208 230.705 68.2812 238.063 71.7041C238.129 71.7041 238.063 71.9055 237.932 71.8383Z" fill="#646464"/>
</g>
<g filter="url(#filter1_di)">
<path d="M55.9437 122.688C56.3187 123.438 56.5375 124.172 56.6 124.891C56.6 125.234 55.85 127.906 54.35 132.906C57.225 133.062 59.1156 133.344 60.0219 133.75C62.2406 133.469 66.0687 133.75 71.5062 134.594C76.975 135.438 79.2562 136.938 78.35 139.094L76.9437 140.359L74.6 140.734L73.0531 140.828L72.8656 140.594L68.3656 141.109L68.7875 141.625L67.8969 141.578L67.1 140.547C64.975 142.453 61.6469 142.797 57.1156 141.578L51.7719 142.047L51.4906 142.094C49.8969 147.281 45.7094 159.062 38.9281 177.438C38.9281 177.969 38.3969 178.234 37.3344 178.234V183.953C35.3031 187.047 33.4437 191.875 31.7562 198.438H30.8187C24.975 194.094 22.0531 191.125 22.0531 189.531V188.734L26.0375 179.828V175.047C27.0375 175.047 31.0531 164.906 38.0844 144.625C37.6156 144.75 37.1469 144.891 36.6781 145.047L40.85 134.172C40.9437 133.734 41.0531 133.297 41.1781 132.859C42.7406 127.922 44.2719 123.859 45.7719 120.672L49.6156 113.828C52.3344 112.984 53.8344 112.359 54.1156 111.953C54.8031 113.297 57.0844 112.828 60.9594 110.547C66.6781 110.328 70.1 110.609 71.225 111.391C72.6937 111.109 75.2094 111.391 78.7719 112.234C82.3656 113.078 83.8656 114.578 83.2719 116.734L82.3344 118L80.7875 118.375L79.7562 118.469L79.6156 118.234L76.7094 118.75L76.9437 119.266L76.3812 119.219L75.8656 118.188C74.4594 120.094 72.2719 120.438 69.3031 119.219L65.7875 119.688L59.7875 121.703C58.4437 121.703 57.1625 122.031 55.9437 122.688ZM80.0094 115.984H81.6031C85.6656 119.359 87.8375 122.328 88.1187 124.891C88.1187 125.672 84.4312 137.766 77.0562 161.172C77.0562 161.703 76.525 161.969 75.4625 161.969V167.688C73.4312 170.781 71.5719 175.609 69.8844 182.172H68.9469C63.1031 177.828 60.1812 174.859 60.1812 173.266V172.469L64.1656 163.562V158.781C65.5094 158.781 68.3531 150.141 72.6969 132.859C75.1656 124.984 77.6031 119.359 80.0094 115.984ZM119.262 123.344C119.45 123.875 119.575 124.391 119.637 124.891C119.637 125.672 115.95 137.766 108.575 161.172C108.575 161.703 108.044 161.969 106.981 161.969V167.688C104.95 170.781 103.091 175.609 101.403 182.172H100.466C94.6219 177.828 91.7 174.859 91.7 173.266V172.469L95.6844 163.562V158.781C97.0281 158.781 99.8719 150.141 104.216 132.859C105.059 130.172 105.903 127.75 106.747 125.594C105.403 125.75 104.075 126.047 102.762 126.484C101.419 124.797 97.7469 124.297 91.7469 124.984C90.6219 125.984 87.5437 124.938 82.5125 121.844L83.4969 121C86.8406 121.562 90.075 120.438 93.2 117.625C97.3562 116.781 99.6375 116.156 100.044 115.75C101.137 117.094 104.622 116.625 110.497 114.344C119.184 114.125 124.387 114.406 126.106 115.188C128.325 114.906 132.153 115.188 137.591 116.031C143.059 116.875 145.341 118.375 144.434 120.531L143.028 121.797L140.684 122.172L139.137 122.266L138.95 122.031L134.45 122.547L134.872 123.062L133.981 123.016L133.184 121.984C131.059 123.891 127.731 124.234 123.2 123.016L119.262 123.344ZM168.266 133.891C169.234 135.828 169.719 137.297 169.719 138.297C169 138.297 165.156 147.719 158.188 166.562C154.438 176.875 151.703 182.031 149.984 182.031C147.547 182.031 146.328 182.281 146.328 182.781C142.672 182.781 140.188 179.812 138.875 173.875H139.625C138.656 171.344 140.203 163.797 144.266 151.234H144.969C144.5 150.266 144.266 149.484 144.266 148.891C143.516 149.078 139 159.641 130.719 180.578C129.812 181.078 129.078 181.328 128.516 181.328L122.656 174.625V173.875C125.344 170.375 127.781 164.719 129.969 156.906C130.531 156.656 135.406 145.281 144.594 122.781C144.094 122.781 143.844 122.531 143.844 122.031C145 122.031 146.469 119.562 148.25 114.625L151.203 112.422C153.953 112.422 155.938 114.609 157.156 118.984C156.594 123.391 156.109 126.125 155.703 127.188C156.203 128.062 155.266 132.75 152.891 141.25L152.141 145.047C152.641 145.953 152.891 146.688 152.891 147.25C152.391 149.188 152.141 150.891 152.141 152.359H153.594C161.844 125.234 166.484 111.672 167.516 111.672C169.484 111.672 172.469 113.375 176.469 116.781V120.484C173.688 125.672 171.438 129.375 169.719 131.594V131.875L168.266 133.891ZM173.3 145.562C177.05 135.719 178.925 130.594 178.925 130.188C179.769 130.188 180.8 127.719 182.019 122.781L186.425 118.891C189.362 117.953 190.831 117.344 190.831 117.062L192.05 117.672L195.097 115.047C195.097 115.859 200.441 115.594 211.128 114.25C221.847 112.906 227.722 112.234 228.753 112.234C228.753 112.828 229.112 113.625 229.831 114.625C230.581 115.594 223.019 117.688 207.144 120.906L200.3 124C196.269 123.875 193.269 126.969 191.3 133.281C189.769 136.688 188.362 139.75 187.081 142.469C190.8 142.469 193.097 142.781 193.972 143.406C195.441 143.125 197.956 143.406 201.519 144.25C205.112 145.094 206.612 146.594 206.019 148.75L205.081 150.016L203.534 150.391L202.503 150.484L202.362 150.25L199.456 150.766L199.691 151.281L199.128 151.234L198.612 150.203C197.206 152.109 195.019 152.453 192.05 151.234L188.534 151.703L182.534 153.719C182.222 153.719 181.909 153.734 181.597 153.766C179.597 157.672 178.362 159.625 177.894 159.625L178.784 159.672C177.816 162.172 177.019 164.281 176.394 166L174.472 170.031V171.25C177.284 170.906 179.456 170.078 180.987 168.766L194.112 168.625C193.769 169.688 193.409 170.969 193.034 172.469L188.628 176.359C185.691 177.297 184.222 177.906 184.222 178.188L183.003 177.578L179.956 178.797C179.956 177.984 177.753 178.172 173.347 179.359C168.941 180.547 166.222 181.141 165.191 181.141C165.191 180.547 164.378 179.938 162.753 179.312L163.362 169.844L163.972 170.031C165.503 165.75 167.159 161.359 168.941 156.859H168.987C169.425 155.703 169.847 154.594 170.253 153.531C169.222 153.312 167.581 152.156 165.331 150.062L165.987 149.219C168.175 149.781 170.3 148.656 172.362 145.844C172.706 145.75 173.019 145.656 173.3 145.562ZM207.209 142.75V143.125C212.303 137.125 216.319 131.469 219.256 126.156C222.85 121.406 225.006 119.031 225.725 119.031L228.538 116.922C230.319 114.578 232.178 113.406 234.116 113.406V114.109C234.834 114.109 236.991 112.438 240.584 109.094H242.694C242.694 112.969 240.584 116.516 236.366 119.734C236.366 121.984 233.522 126.734 227.834 133.984C225.491 135.234 224.319 137.344 224.319 140.312L227.131 141.719L237.772 135.391C241.366 136.891 243.709 138.766 244.803 141.016V143.125L243.397 145.375L242.319 146.734H241.991L239.178 150.953H239.881L239.178 151.656H237.772C237.772 154.781 235.631 157.875 231.35 160.938L227.834 165.812L222.772 175.094C221.303 176.812 220.131 178.719 219.256 180.812C216.944 180.812 213.866 183.625 210.022 189.25C210.022 190.875 206.944 192.781 200.788 194.969V193.562C203.663 191.062 205.1 187.516 205.1 182.922C207.444 178.797 208.616 176.422 208.616 175.797C210.491 175.797 212.647 172.469 215.084 165.812C221.241 158.25 225.256 154 227.131 153.062C228.538 150.969 229.241 148.859 229.241 146.734C228.772 146.734 228.538 146.5 228.538 146.031C222.819 147.906 218.334 150.484 215.084 153.766C209.834 152.297 207.209 148.984 207.209 143.828L205.803 144.672L207.209 142.75ZM243.509 142.75V143.125C248.603 137.125 252.619 131.469 255.556 126.156C259.15 121.406 261.306 119.031 262.025 119.031L264.837 116.922C266.619 114.578 268.478 113.406 270.416 113.406V114.109C271.134 114.109 273.291 112.438 276.884 109.094H278.994C278.994 112.969 276.884 116.516 272.666 119.734C272.666 121.984 269.822 126.734 264.134 133.984C261.791 135.234 260.619 137.344 260.619 140.312L263.431 141.719L274.072 135.391C277.666 136.891 280.009 138.766 281.103 141.016V143.125L279.697 145.375L278.619 146.734H278.291L275.478 150.953H276.181L275.478 151.656H274.072C274.072 154.781 271.931 157.875 267.65 160.938L264.134 165.812L259.072 175.094C257.603 176.812 256.431 178.719 255.556 180.812C253.244 180.812 250.166 183.625 246.322 189.25C246.322 190.875 243.244 192.781 237.087 194.969V193.562C239.962 191.062 241.4 187.516 241.4 182.922C243.744 178.797 244.916 176.422 244.916 175.797C246.791 175.797 248.947 172.469 251.384 165.812C257.541 158.25 261.556 154 263.431 153.062C264.837 150.969 265.541 148.859 265.541 146.734C265.072 146.734 264.837 146.5 264.837 146.031C259.119 147.906 254.634 150.484 251.384 153.766C246.134 152.297 243.509 148.984 243.509 143.828L242.103 144.672L243.509 142.75Z" fill="#FF6B00"/>
</g>
<g filter="url(#filter2_di)">
<path d="M71.6031 246.875C72.5719 243.688 74.1969 239.609 76.4781 234.641C76.4781 234.109 77.0094 233.844 78.0719 233.844V228.125C80.1031 225.031 84.0875 214.172 90.025 195.547H90.9625C96.1813 199.891 98.1969 204.906 97.0094 210.594V211.391L88.4313 232.25V237.031C87.0875 237.031 85.775 239.656 84.4938 244.906C82.025 252.781 79.5875 258.406 77.1813 261.781H75.5875C71.5875 262.281 69.1188 262.531 68.1813 262.531H67.3375C64.2438 258.375 62.4781 255.875 62.0406 255.031C62.6656 247.812 63.2125 243.875 63.6813 243.219L62.8375 241.578L64.525 236.422H63.6813C61.65 238.109 59.3844 242.047 56.8844 248.234C52.3531 256.641 49.8531 260.844 49.3844 260.844H47.7438L43.4781 260.797H42.5406C36.6969 256.453 33.775 253.484 33.775 251.891V251.094L37.7594 242.188V237.406C39.1031 237.406 40.1656 234.438 40.9469 228.5C51.2906 201.656 57.65 186.547 60.025 183.172H61.6188C64.9 189.234 66.6813 193.547 66.9625 196.109C66.9625 196.891 61.525 211.453 50.65 239.797C50.65 240.328 50.1188 240.594 49.0563 240.594V246.172C51.525 241.266 54.9625 234.969 59.3688 227.281L71.6969 201.031L75.025 200.188C72.7438 215.688 71.6031 225.094 71.6031 228.406L70.8063 243.219C71.3688 245.188 71.65 246.297 71.65 246.547C71.65 246.641 71.6344 246.75 71.6031 246.875ZM45.775 253.25C46.4938 251.469 47.4938 249.312 48.775 246.781C47.7125 248.469 46.7125 250.625 45.775 253.25ZM114.325 218.094C107.419 234.312 103.653 243.281 103.028 245L101.106 249.031V250.25C107.294 249.5 110.388 246.406 110.388 240.969C118.294 223.938 122.731 215.406 123.7 215.375H122.763C123.763 212.875 124.575 210.766 125.2 209.047L128.997 202.203V200.984C124.841 200.703 121.747 203.797 119.716 210.266C116.497 215.453 114.403 218.047 113.434 218.047L114.325 218.094ZM129.934 225.969C125.153 237.5 122.763 243.531 122.763 244.062C121.919 244.062 120.888 246.531 119.669 251.469L115.263 255.359C112.325 256.297 110.856 256.906 110.856 257.188L109.638 256.578L106.591 257.797C106.591 256.984 104.388 257.172 99.9813 258.359C95.575 259.547 92.8563 260.141 91.825 260.141C91.825 259.547 91.0125 258.938 89.3875 258.312L89.9969 248.844L90.6063 249.031C92.1375 244.75 96.7625 233.5 104.481 215.281H104.528C106.403 210.406 107.341 207.703 107.341 207.172C108.184 207.172 109.216 204.703 110.434 199.766L114.841 195.875C117.778 194.938 119.247 194.328 119.247 194.047L120.466 194.656L123.513 193.438C123.513 194.25 125.716 194.062 130.122 192.875C134.528 191.688 137.247 191.094 138.278 191.094C138.278 191.688 139.091 192.297 140.716 192.922L140.106 202.391L139.497 202.203C137.934 206.484 134.747 214.406 129.934 225.969ZM154 221.422C153.969 221.578 153.922 221.734 153.859 221.891H154.047C153.703 222.766 153.391 223.578 153.109 224.328C152.266 227.078 151.312 230.094 150.25 233.375C156.094 232.531 159.016 229.469 159.016 224.188C160.984 220.875 162.453 219.203 163.422 219.172H162.484C163.484 216.672 164.297 214.562 164.922 212.844L168.719 206V204.781C164.562 202.312 160.859 202.547 157.609 205.484C156.359 215.203 155.156 220.516 154 221.422ZM146.312 247.109C144.25 250.672 140.859 261.281 136.141 278.938H135.203C132.578 262.75 131.266 253.859 131.266 252.266V251.469L135.25 242.562V237.781C136.594 237.781 139.438 229.141 143.781 211.859C146.25 203.984 148.766 199 151.328 196.906C153.891 194.812 155.688 194.391 156.719 195.641C158.219 195.109 158.969 194.75 158.969 194.562L160.188 195.172L163.234 193.953C163.234 194.766 165.438 195.125 169.844 195.031C174.25 194.938 176.969 194.891 178 194.891C178 195.484 178.812 196.094 180.438 196.719L179.828 206.188L179.219 206C177.656 210.281 175.953 214.766 174.109 219.453C172.297 224.141 171.391 226.75 171.391 227.281C170.547 227.281 169.516 229.75 168.297 234.688L163.891 238.578C160.953 239.516 159.484 240.125 159.484 240.406L158.266 239.797L155.219 241.016C155.219 240.297 153.438 240.375 149.875 241.25L150.484 241.672L150.906 243.031C153.531 242.5 156.766 244.062 160.609 247.719L165.766 250.297L175 253.625C176.906 254.781 178.859 255.594 180.859 256.062C181.578 258.344 184.859 260.859 190.703 263.609C192.078 263.328 194.609 266.016 198.297 271.672L197.125 271.906C194.156 269.531 190.75 268.734 186.906 269.516C182.75 267.922 180.406 267.188 179.875 267.312C179.312 265.469 175.891 263.938 169.609 262.719C161.422 258.031 156.656 254.844 155.312 253.156C153.375 252.25 150.375 250.234 146.312 247.109ZM149.734 241.297C149.547 241.328 149.359 241.375 149.172 241.438L149.922 241.766L149.734 241.297ZM174.878 252.078C174.691 251.547 174.566 251.031 174.503 250.531C174.503 249.75 178.191 237.656 185.566 214.25C185.566 213.719 186.097 213.453 187.159 213.453V207.734C189.816 204.641 191.987 199.812 193.675 193.25H194.612C204.675 186.594 209.706 184.062 209.706 185.656V186.453L198.456 211.859V216.641C197.112 216.641 194.269 225.281 189.925 242.562C189.081 245.25 188.237 247.672 187.394 249.828C188.737 249.672 190.066 249.375 191.378 248.938C192.722 250.625 197.956 251.125 207.081 250.438C208.206 249.438 211.284 250.484 216.316 253.578L215.331 254.422C211.987 253.859 208.753 254.984 205.628 257.797C198.347 258.641 194.503 259.266 194.097 259.672C193.003 258.328 190.987 258.234 188.05 259.391C185.112 260.516 180.722 258.078 174.878 252.078ZM230.772 196.578L233.819 195.359C233.819 196.172 236.022 195.984 240.428 194.797C244.834 193.609 247.553 193.016 248.584 193.016C248.584 193.609 249.397 194.219 251.022 194.844L250.413 204.312L249.803 204.125C248.272 208.406 246.616 212.797 244.834 217.297H244.788C238.163 234.547 234.85 243.438 234.85 243.969C234.006 243.969 232.975 246.438 231.756 251.375L227.35 255.266C224.413 256.203 222.944 256.812 222.944 257.094L221.725 256.484L218.678 259.109C218.678 258.297 213.319 258.562 202.6 259.906C191.913 261.25 186.053 261.922 185.022 261.922C185.022 261.328 184.663 260.547 183.944 259.578C183.194 258.578 190.741 256.469 206.584 253.25L213.475 250.156C217.475 250.281 220.475 247.188 222.475 240.875C230.444 223.312 234.913 214.531 235.881 214.531L234.991 214.484C235.959 211.984 236.756 209.875 237.381 208.156L239.303 204.125V202.906C236.491 203.25 234.319 204.078 232.788 205.391L228.053 205.438C226.334 211 224.116 218.094 221.397 226.719C221.397 227.25 220.866 227.516 219.803 227.516V233.234C217.772 236.328 215.913 241.156 214.225 247.719H213.288C207.444 243.375 204.522 240.406 204.522 238.812V238.016L208.506 229.109V224.328C209.85 224.328 212.694 215.688 217.038 198.406C219.506 190.531 221.944 184.906 224.35 181.531H225.944C230.006 184.906 232.178 187.875 232.459 190.438C232.459 190.75 231.897 192.797 230.772 196.578Z" fill="#FF6B00"/>
</g>
<defs>
<filter id="filter0_i" x="0" y="0" width="271" height="213" filterUnits="userSpaceOnUse" color-interpolation-filters="sRGB">
<feFlood flood-opacity="0" result="BackgroundImageFix"/>
<feBlend mode="normal" in="SourceGraphic" in2="BackgroundImageFix" result="shape"/>
<feColorMatrix in="SourceAlpha" type="matrix" values="0 0 0 0 0 0 0 0 0 0 0 0 0 0 0 0 0 0 127 0" result="hardAlpha"/>
<feOffset/>
<feGaussianBlur stdDeviation="34.5"/>
<feComposite in2="hardAlpha" operator="arithmetic" k2="-1" k3="1"/>
<feColorMatrix type="matrix" values="0 0 0 0 0 0 0 0 0 0 0 0 0 0 0 0 0 0 1 0"/>
<feBlend mode="normal" in2="shape" result="effect1_innerShadow"/>
</filter>
<filter id="filter1_di" x="18.0531" y="109.094" width="267.05" height="97.3438" filterUnits="userSpaceOnUse" color-interpolation-filters="sRGB">
<feFlood flood-opacity="0" result="BackgroundImageFix"/>
<feColorMatrix in="SourceAlpha" type="matrix" values="0 0 0 0 0 0 0 0 0 0 0 0 0 0 0 0 0 0 127 0"/>
<feOffset dy="4"/>
<feGaussianBlur stdDeviation="2"/>
<feColorMatrix type="matrix" values="0 0 0 0 0 0 0 0 0 0 0 0 0 0 0 0 0 0 0.25 0"/>
<feBlend mode="normal" in2="BackgroundImageFix" result="effect1_dropShadow"/>
<feBlend mode="normal" in="SourceGraphic" in2="effect1_dropShadow" result="shape"/>
<feColorMatrix in="SourceAlpha" type="matrix" values="0 0 0 0 0 0 0 0 0 0 0 0 0 0 0 0 0 0 127 0" result="hardAlpha"/>
<feOffset dy="4"/>
<feGaussianBlur stdDeviation="2"/>
<feComposite in2="hardAlpha" operator="arithmetic" k2="-1" k3="1"/>
<feColorMatrix type="matrix" values="0 0 0 0 0 0 0 0 0 0 0 0 0 0 0 0 0 0 0.25 0"/>
<feBlend mode="normal" in2="shape" result="effect2_innerShadow"/>
</filter>
<filter id="filter2_di" x="29.775" y="181.531" width="225.247" height="105.406" filterUnits="userSpaceOnUse" color-interpolation-filters="sRGB">
<feFlood flood-opacity="0" result="BackgroundImageFix"/>
<feColorMatrix in="SourceAlpha" type="matrix" values="0 0 0 0 0 0 0 0 0 0 0 0 0 0 0 0 0 0 127 0"/>
<feOffset dy="4"/>
<feGaussianBlur stdDeviation="2"/>
<feColorMatrix type="matrix" values="0 0 0 0 0 0 0 0 0 0 0 0 0 0 0 0 0 0 0.25 0"/>
<feBlend mode="normal" in2="BackgroundImageFix" result="effect1_dropShadow"/>
<feBlend mode="normal" in="SourceGraphic" in2="effect1_dropShadow" result="shape"/>
<feColorMatrix in="SourceAlpha" type="matrix" values="0 0 0 0 0 0 0 0 0 0 0 0 0 0 0 0 0 0 127 0" result="hardAlpha"/>
<feOffset dy="4"/>
<feGaussianBlur stdDeviation="2"/>
<feComposite in2="hardAlpha" operator="arithmetic" k2="-1" k3="1"/>
<feColorMatrix type="matrix" values="0 0 0 0 0 0 0 0 0 0 0 0 0 0 0 0 0 0 0.25 0"/>
<feBlend mode="normal" in2="shape" result="effect2_innerShadow"/>
</filter>
</defs>
</svg>
